<svg width="203" height="254" viewBox="0 0 203 254" fill="none" xmlns="http://www.w3.org/2000/svg">
<path d="M89.6312 5.39573H5.23051V56.6273H20.9941V198.171H5.23051V249.402H89.6312V198.171H73.8676V150.552H128.712V198.171H112.948V249.402H197.349V203.425V198.171H181.585V56.6273H197.349V5.39573H113.605V56.6273H128.712V99.3202H73.8676V56.6273H89.6312V5.39573ZM0.632812 0.798038H94.2289V61.225H78.7937V94.7225H124.114V61.225H108.679V0.798038H201.946L202.275 61.225H186.511V193.573H201.946L202.275 254H108.35V193.573H124.114V155.149H78.7937V193.573H94.2289V254H0.632812V193.573H16.3964V61.225H0.632812V0.798038ZM192.423 51.3727H176.659V203.425H192.423V244.148H118.203V203.425H133.966V145.297H68.9415V203.425H84.7051V244.148H10.485V203.425H26.2486V51.3727H10.485V10.6502H84.7051V51.3727H68.9415V104.575H133.966V51.3727H118.531V10.6502H192.423V51.3727Z" fill="#20336B"/>
</svg>
