<?xml version="1.0" encoding="UTF-8" standalone="no" ?>
<!DOCTYPE svg PUBLIC "-//W3C//DTD SVG 1.1//EN" "http://www.w3.org/Graphics/SVG/1.1/DTD/svg11.dtd">
<svg xmlns="http://www.w3.org/2000/svg" xmlns:xlink="http://www.w3.org/1999/xlink" version="1.1" width="1080" height="1080" viewBox="0 0 1080 1080" xml:space="preserve">
<desc>Created with Fabric.js 5.2.4</desc>
<defs>
</defs>
<g transform="matrix(1 0 0 1 540 540)" id="bc1b1659-f2d0-4f6d-b912-61c3ad39999a"  >
<rect style="stroke: none; stroke-width: 1; stroke-dasharray: none; stroke-linecap: butt; stroke-dashoffset: 0; stroke-linejoin: miter; stroke-miterlimit: 4; fill: rgb(255,255,255); fill-rule: nonzero; opacity: 1; visibility: hidden;" vector-effect="non-scaling-stroke"  x="-540" y="-540" rx="0" ry="0" width="1080" height="1080" />
</g>
<g transform="matrix(1 0 0 1 540 540)" id="36be8cb0-628e-4ad1-8d4c-912a030db38b"  >
</g>
<g transform="matrix(NaN NaN NaN NaN 0 0)"  >
<g style=""   >
</g>
</g>
<g transform="matrix(NaN NaN NaN NaN 0 0)"  >
<g style=""   >
</g>
</g>
<g transform="matrix(NaN NaN NaN NaN 0 0)"  >
<g style=""   >
</g>
</g>
<g transform="matrix(5.32 0 0 5.32 540 540)"  >
<path style="stroke: none; stroke-width: 1; stroke-dasharray: none; stroke-linecap: butt; stroke-dashoffset: 0; stroke-linejoin: miter; stroke-miterlimit: 4; fill: rgb(255,255,255); fill-rule: nonzero; opacity: 1;"  transform=" translate(-101.45, -127.4)" d="M 89.6312 5.39573 L 5.23051 5.39573 L 5.23051 56.6273 L 20.9941 56.6273 L 20.9941 198.171 L 5.23051 198.171 L 5.23051 249.402 L 89.6312 249.402 L 89.6312 198.171 L 73.8676 198.171 L 73.8676 150.552 L 128.712 150.552 L 128.712 198.171 L 112.948 198.171 L 112.948 249.402 L 197.349 249.402 L 197.349 203.425 L 197.349 198.171 L 181.585 198.171 L 181.585 56.6273 L 197.349 56.6273 L 197.349 5.39573 L 113.605 5.39573 L 113.605 56.6273 L 128.712 56.6273 L 128.712 99.3202 L 73.8676 99.3202 L 73.8676 56.6273 L 89.6312 56.6273 L 89.6312 5.39573 Z M 0.632812 0.798038 L 94.2289 0.798038 L 94.2289 61.225 L 78.7937 61.225 L 78.7937 94.7225 L 124.114 94.7225 L 124.114 61.225 L 108.679 61.225 L 108.679 0.798038 L 201.946 0.798038 L 202.275 61.225 L 186.511 61.225 L 186.511 193.573 L 201.946 193.573 L 202.275 254 L 108.35 254 L 108.35 193.573 L 124.114 193.573 L 124.114 155.149 L 78.7937 155.149 L 78.7937 193.573 L 94.2289 193.573 L 94.2289 254 L 0.632812 254 L 0.632812 193.573 L 16.3964 193.573 L 16.3964 61.225 L 0.632812 61.225 L 0.632812 0.798038 Z M 192.423 51.3727 L 176.659 51.3727 L 176.659 203.425 L 192.423 203.425 L 192.423 244.148 L 118.203 244.148 L 118.203 203.425 L 133.966 203.425 L 133.966 145.297 L 68.9415 145.297 L 68.9415 203.425 L 84.7051 203.425 L 84.7051 244.148 L 10.485 244.148 L 10.485 203.425 L 26.2486 203.425 L 26.2486 51.3727 L 10.485 51.3727 L 10.485 10.6502 L 84.7051 10.6502 L 84.7051 51.3727 L 68.9415 51.3727 L 68.9415 104.575 L 133.966 104.575 L 133.966 51.3727 L 118.531 51.3727 L 118.531 10.6502 L 192.423 10.6502 L 192.423 51.3727 Z" stroke-linecap="round" />
</g>
</svg>